<svg xmlns="http://www.w3.org/2000/svg" xmlns:xlink="http://www.w3.org/1999/xlink" id="svg" width="140" height="35" version="1.1" viewBox="0 0 400 100.46"><g id="svgg"><path id="path0" fill="#e32028" fill-rule="evenodd" stroke="none" d="M68.583 4.749 C 67.483 4.862,66.358 5.005,66.083 5.068 C 58.273 6.860,54.256 11.443,54.530 18.250 L 54.583 19.583 61.833 19.583 L 69.083 19.583 69.190 17.583 C 69.360 14.401,69.595 14.000,71.287 14.000 C 72.455 14.000,72.985 14.348,73.262 15.296 C 73.335 15.546,73.437 29.662,73.489 46.667 L 73.583 77.583 80.750 77.583 L 87.917 77.583 87.959 46.613 C 88.001 15.704,88.000 15.640,87.654 14.279 C 86.235 8.714,81.248 5.422,73.096 4.668 C 71.039 4.478,71.267 4.474,68.583 4.749 M163.000 4.747 C 161.854 4.860,160.692 5.004,160.417 5.067 C 152.741 6.846,149.000 10.905,149.000 17.455 L 149.000 19.667 156.149 19.667 C 162.514 19.667,163.309 19.638,163.399 19.403 C 163.454 19.258,163.500 18.596,163.500 17.931 C 163.500 14.938,163.995 14.000,165.575 14.000 C 167.959 14.000,167.733 10.736,167.832 46.667 L 167.917 77.583 174.750 77.630 C 178.508 77.655,181.754 77.635,181.962 77.584 L 182.340 77.492 182.295 46.038 L 182.250 14.583 181.813 13.389 C 181.573 12.732,181.216 11.970,181.021 11.697 C 180.826 11.423,180.667 11.146,180.667 11.081 C 180.667 10.826,179.199 9.229,178.228 8.429 C 176.293 6.833,173.380 5.562,170.417 5.021 C 169.495 4.853,165.538 4.472,165.221 4.521 C 165.145 4.533,164.146 4.635,163.000 4.747 M28.333 20.595 C 25.367 20.920,24.218 21.086,23.000 21.367 C 16.455 22.878,12.087 26.062,10.540 30.451 C 10.260 31.246,9.979 76.366,10.247 77.458 L 10.340 77.833 17.545 77.833 L 24.750 77.833 24.700 55.708 C 24.647 32.445,24.635 32.874,25.376 31.791 C 27.312 28.962,33.159 29.239,34.802 32.237 C 35.226 33.009,35.235 65.750,34.813 66.679 C 34.263 67.887,32.355 69.494,31.464 69.498 C 31.307 69.499,31.101 69.645,31.006 69.822 C 30.821 70.167,30.758 76.942,30.934 77.403 C 31.038 77.672,68.210 77.831,68.903 77.566 C 69.307 77.410,69.307 21.590,68.903 21.434 C 68.365 21.228,54.912 21.322,54.700 21.533 C 54.546 21.687,54.500 27.170,54.500 45.200 L 54.500 68.667 51.415 68.667 L 48.330 68.667 48.761 67.842 C 49.669 66.106,49.654 66.421,49.661 48.436 C 49.665 36.615,49.612 31.590,49.479 31.103 C 48.497 27.504,45.511 24.477,41.250 22.759 C 37.445 21.224,31.574 20.241,28.333 20.595 M305.167 20.608 C 296.718 21.200,290.762 25.392,289.991 31.287 C 289.882 32.126,289.839 40.530,289.869 55.083 L 289.917 77.583 297.125 77.627 L 304.333 77.670 304.333 55.448 C 304.333 30.727,304.260 32.297,305.468 31.086 C 307.317 29.233,310.269 29.475,311.583 31.587 L 312.083 32.390 312.129 54.896 C 312.164 72.472,312.219 77.430,312.379 77.531 C 312.736 77.759,326.570 77.697,326.800 77.467 C 326.954 77.313,327.000 72.116,327.001 55.092 C 327.002 40.132,327.059 32.712,327.177 32.287 C 328.012 29.279,332.903 29.006,334.245 31.893 C 334.805 33.098,334.825 33.928,334.829 55.710 L 334.833 77.504 342.042 77.460 L 349.250 77.417 349.250 54.583 C 349.250 31.305,349.247 31.188,348.668 29.750 C 347.279 26.301,344.695 23.947,340.333 22.159 C 339.413 21.782,339.258 21.735,337.417 21.278 C 331.635 19.844,324.328 20.740,320.364 23.369 L 319.144 24.177 318.173 23.587 C 316.519 22.582,315.268 22.082,312.750 21.418 C 310.377 20.791,307.275 20.460,305.167 20.608 M203.083 20.842 C 196.282 21.760,191.574 24.140,188.962 27.982 C 187.261 30.484,187.423 27.814,187.373 54.208 L 187.329 77.333 194.662 77.333 L 201.995 77.333 202.041 55.208 C 202.092 30.747,202.014 32.340,203.218 31.098 C 204.895 29.370,207.759 29.614,209.286 31.616 L 209.750 32.224 209.793 54.812 C 209.828 72.558,209.881 77.427,210.043 77.530 C 210.363 77.733,223.795 77.699,224.178 77.494 C 224.494 77.325,224.500 76.902,224.500 55.348 C 224.500 30.942,224.414 32.753,225.634 31.532 C 226.680 30.487,227.330 30.259,229.458 30.195 C 230.490 30.164,231.333 30.181,231.333 30.234 C 231.333 30.287,231.059 30.687,230.723 31.124 C 228.615 33.866,228.635 33.658,228.710 51.940 C 228.781 69.070,228.718 68.075,229.881 70.490 C 233.752 78.524,249.992 80.793,260.741 74.800 C 261.909 74.149,264.038 71.873,264.686 70.583 C 265.809 68.346,265.750 69.427,265.750 51.167 L 265.750 34.583 265.343 33.583 C 264.821 32.303,264.527 31.818,263.787 31.018 C 263.022 30.192,263.059 30.167,265.050 30.167 C 267.096 30.167,267.804 30.369,268.784 31.231 C 270.286 32.553,270.159 30.335,270.163 55.375 L 270.167 77.500 277.500 77.500 L 284.833 77.500 284.833 54.683 L 284.833 31.865 284.423 30.652 C 282.749 25.705,276.789 22.058,268.917 21.164 C 265.679 20.796,255.471 21.101,252.350 21.658 C 250.620 21.967,248.141 22.947,247.241 23.678 C 247.133 23.765,246.742 23.587,246.241 23.224 C 243.722 21.401,241.332 21.022,232.250 21.009 C 223.813 20.996,220.526 21.487,218.047 23.130 C 217.569 23.447,217.081 23.660,216.964 23.602 C 216.846 23.545,216.450 23.311,216.083 23.082 C 215.038 22.430,214.293 22.126,212.250 21.514 C 211.727 21.358,210.408 21.127,208.385 20.838 C 207.015 20.642,204.551 20.644,203.083 20.842 M148.744 21.542 C 148.701 21.656,148.647 32.250,148.624 45.083 L 148.583 68.417 142.208 68.460 C 138.702 68.484,135.833 68.443,135.833 68.368 C 135.833 68.293,136.105 67.936,136.437 67.574 C 137.565 66.344,138.413 64.861,138.813 63.417 C 139.054 62.548,139.065 44.078,138.825 43.000 C 135.771 29.268,106.080 28.533,101.786 42.083 C 101.422 43.232,101.417 43.398,101.417 52.833 L 101.417 62.417 108.833 62.417 L 116.250 62.417 116.186 62.000 C 116.000 60.782,115.996 45.365,116.183 44.667 C 117.083 41.291,121.474 40.440,123.493 43.251 L 124.083 44.073 124.083 54.161 L 124.083 64.250 123.634 65.014 C 123.041 66.022,122.007 66.937,120.853 67.474 C 118.814 68.423,119.392 68.385,106.000 68.445 C 99.171 68.475,93.415 68.539,93.208 68.586 L 92.833 68.673 92.833 73.069 C 92.833 76.923,92.866 77.477,93.097 77.566 C 93.442 77.698,162.892 77.698,163.236 77.566 C 163.505 77.462,163.666 22.292,163.399 21.597 C 163.263 21.244,148.877 21.189,148.744 21.542 M248.050 32.806 C 249.371 33.405,250.203 34.134,250.649 35.083 C 251.064 35.967,251.215 65.642,250.810 66.850 C 249.734 70.066,244.343 69.861,243.515 66.573 C 243.391 66.081,243.333 61.180,243.333 51.099 C 243.333 34.392,243.255 35.394,244.694 33.758 C 245.945 32.337,246.603 32.150,248.050 32.806 M368.583 33.004 C 367.667 33.175,366.617 33.400,366.250 33.505 C 365.883 33.609,365.376 33.734,365.123 33.783 C 364.870 33.832,364.622 33.938,364.571 34.019 C 364.521 34.100,364.334 34.167,364.155 34.167 C 363.975 34.167,363.699 34.237,363.539 34.324 C 363.380 34.410,362.650 34.760,361.917 35.100 C 358.342 36.761,355.799 39.261,354.635 42.259 L 354.250 43.250 354.250 55.419 L 354.250 67.588 354.738 68.753 C 355.723 71.103,357.934 73.575,360.164 74.817 C 361.349 75.477,363.290 76.456,363.583 76.541 C 363.767 76.594,364.554 76.828,365.333 77.061 C 370.539 78.615,377.236 78.496,382.417 76.757 C 387.595 75.019,391.156 71.845,392.279 67.966 L 392.667 66.629 392.667 55.491 C 392.667 43.249,392.665 43.225,391.644 41.087 C 388.753 35.036,377.968 31.256,368.583 33.004 M375.385 42.202 C 376.175 42.438,377.369 43.471,377.729 44.229 C 378.130 45.075,378.142 65.671,377.741 66.630 C 376.566 69.443,371.974 69.975,369.836 67.547 C 368.813 66.384,368.806 66.301,368.865 55.000 L 368.917 44.917 369.333 44.083 C 370.243 42.264,372.866 41.449,375.385 42.202 M364.382 80.255 C 363.342 80.756,363.000 81.196,363.000 82.037 C 363.000 82.797,363.192 82.825,363.933 82.175 C 365.104 81.147,366.688 81.297,367.292 82.494 C 367.659 83.222,367.667 83.354,367.667 89.042 L 367.667 94.846 369.208 94.798 L 370.750 94.750 370.750 88.833 C 370.750 83.104,370.738 82.892,370.386 82.130 C 369.484 80.175,366.490 79.241,364.382 80.255 M327.333 83.688 C 323.506 84.724,322.008 89.198,324.048 93.500 C 324.592 94.649,324.840 94.833,325.837 94.833 C 327.023 94.833,327.096 94.751,326.491 94.106 C 324.369 91.844,324.567 87.042,326.833 85.797 C 330.494 83.785,332.978 90.190,330.053 94.099 C 329.840 94.383,329.667 94.664,329.667 94.724 C 329.667 94.784,332.077 94.833,335.023 94.833 L 340.380 94.833 340.265 89.792 C 340.202 87.019,340.108 84.506,340.056 84.208 L 339.963 83.667 338.579 83.667 C 336.903 83.667,337.060 83.129,337.202 88.373 C 337.346 93.709,337.537 93.167,335.515 93.167 C 333.623 93.167,333.553 93.121,333.951 92.136 C 334.472 90.848,334.365 87.638,333.767 86.583 C 332.393 84.163,329.833 83.011,327.333 83.688 M343.555 83.809 C 342.002 84.345,341.500 84.862,341.500 85.925 C 341.500 86.937,341.566 87.006,342.003 86.450 C 344.384 83.424,348.405 85.960,347.817 90.116 C 347.374 93.245,344.023 94.441,342.101 92.157 C 341.544 91.495,341.500 91.525,341.500 92.575 C 341.500 95.920,348.635 95.678,350.303 92.277 C 352.768 87.248,348.630 82.055,343.555 83.809 M357.167 83.684 C 353.559 84.498,351.858 87.514,352.830 91.371 C 353.500 94.031,354.140 94.833,355.592 94.833 C 356.857 94.833,356.862 94.823,356.005 93.966 C 354.434 92.395,353.784 89.229,354.675 87.484 C 355.810 85.258,359.712 84.757,361.555 86.600 C 362.061 87.107,362.205 87.711,361.725 87.312 C 361.143 86.829,358.793 87.009,358.058 87.592 C 356.727 88.648,356.165 91.064,356.878 92.667 C 358.288 95.835,363.122 95.684,364.644 92.424 C 367.062 87.245,362.907 82.389,357.167 83.684 M380.917 83.692 C 379.965 84.007,379.580 84.235,378.865 84.908 C 378.169 85.562,377.970 85.883,377.436 87.208 C 377.229 87.721,377.100 87.834,376.717 87.835 C 372.527 87.851,370.856 92.709,374.412 94.537 C 375.473 95.083,377.364 95.031,378.314 94.430 L 379.045 93.968 379.980 94.426 C 383.420 96.110,387.833 93.590,387.833 89.941 C 387.833 89.364,388.187 89.230,388.745 89.595 C 390.301 90.615,389.847 93.155,388.078 93.333 C 387.300 93.412,387.247 93.447,387.207 93.917 C 387.049 95.734,390.928 95.177,392.180 93.203 C 393.649 90.886,391.417 87.833,388.253 87.833 C 387.978 87.833,387.818 87.684,387.670 87.292 C 386.523 84.247,383.731 82.759,380.917 83.692 M383.133 85.567 C 383.904 85.968,384.991 87.453,384.716 87.729 C 384.658 87.786,383.378 87.833,381.871 87.833 L 379.131 87.833 379.239 87.375 C 379.620 85.775,381.687 84.815,383.133 85.567 M361.187 88.883 C 362.576 89.940,362.389 92.458,360.874 93.090 C 359.279 93.757,357.947 92.053,358.490 90.039 C 358.806 88.865,360.315 88.219,361.187 88.883 M377.219 90.042 C 377.273 90.431,377.448 91.154,377.608 91.647 L 377.898 92.544 377.497 92.869 C 376.278 93.857,374.868 92.085,375.594 90.477 C 376.180 89.176,377.067 88.938,377.219 90.042 M384.867 90.165 C 384.624 93.873,379.845 94.180,379.027 90.540 C 378.757 89.337,378.802 89.319,382.052 89.371 L 384.917 89.417 384.867 90.165"/><path id="path1" fill="none" fill-rule="evenodd" stroke="none" d="M0.000 50.167 L 0.000 100.333 200.000 100.333 L 400.000 100.333 400.000 50.167 L 400.000 0.000 200.000 0.000 L 0.000 0.000 0.000 50.167 M73.096 4.668 C 81.248 5.422,86.235 8.714,87.654 14.279 C 88.000 15.640,88.001 15.704,87.959 46.613 L 87.917 77.583 80.750 77.583 L 73.583 77.583 73.489 46.667 C 73.437 29.662,73.335 15.546,73.262 15.296 C 72.985 14.348,72.455 14.000,71.287 14.000 C 69.595 14.000,69.360 14.401,69.190 17.583 L 69.083 19.583 61.833 19.583 L 54.583 19.583 54.530 18.250 C 54.256 11.443,58.273 6.860,66.083 5.068 C 66.514 4.970,69.906 4.587,70.929 4.522 C 71.120 4.510,72.095 4.576,73.096 4.668 M167.388 4.669 C 170.246 4.908,171.188 5.089,173.500 5.848 C 176.230 6.744,180.667 9.984,180.667 11.081 C 180.667 11.146,180.826 11.423,181.021 11.697 C 181.216 11.970,181.573 12.732,181.813 13.389 L 182.250 14.583 182.295 46.038 L 182.340 77.492 181.962 77.584 C 181.754 77.635,178.508 77.655,174.750 77.630 L 167.917 77.583 167.832 46.667 C 167.733 10.736,167.959 14.000,165.575 14.000 C 163.995 14.000,163.500 14.938,163.500 17.931 C 163.500 18.596,163.454 19.258,163.399 19.403 C 163.309 19.638,162.514 19.667,156.149 19.667 L 149.000 19.667 149.000 17.455 C 149.000 10.905,152.741 6.846,160.417 5.067 C 160.692 5.004,161.854 4.860,163.000 4.747 C 164.146 4.635,165.145 4.533,165.221 4.521 C 165.297 4.510,166.272 4.576,167.388 4.669 M34.409 20.924 C 41.685 21.967,46.872 25.047,48.889 29.522 C 49.682 31.282,49.667 30.914,49.661 48.436 C 49.654 66.421,49.669 66.106,48.761 67.842 L 48.330 68.667 51.415 68.667 L 54.500 68.667 54.500 45.200 C 54.500 27.170,54.546 21.687,54.700 21.533 C 54.912 21.322,68.365 21.228,68.903 21.434 C 69.307 21.590,69.307 77.410,68.903 77.566 C 68.210 77.831,31.038 77.672,30.934 77.403 C 30.758 76.942,30.821 70.167,31.006 69.822 C 31.101 69.645,31.307 69.499,31.464 69.498 C 32.355 69.494,34.263 67.887,34.813 66.679 C 35.235 65.750,35.226 33.009,34.802 32.237 C 33.159 29.239,27.312 28.962,25.376 31.791 C 24.635 32.874,24.647 32.445,24.700 55.708 L 24.750 77.833 17.545 77.833 L 10.340 77.833 10.247 77.458 C 9.979 76.366,10.260 31.246,10.540 30.451 C 12.087 26.062,16.455 22.878,23.000 21.367 C 24.218 21.086,25.367 20.920,28.333 20.595 C 29.304 20.489,32.629 20.669,34.409 20.924 M310.417 20.921 C 313.666 21.488,316.086 22.319,318.173 23.587 L 319.144 24.177 320.364 23.369 C 324.328 20.740,331.635 19.844,337.417 21.278 C 339.258 21.735,339.413 21.782,340.333 22.159 C 345.188 24.149,347.958 26.940,349.026 30.917 C 349.208 31.595,349.250 36.001,349.250 54.583 L 349.250 77.417 342.042 77.460 L 334.833 77.504 334.829 55.710 C 334.825 33.928,334.805 33.098,334.245 31.893 C 332.903 29.006,328.012 29.279,327.177 32.287 C 327.059 32.712,327.002 40.132,327.001 55.092 C 327.000 72.116,326.954 77.313,326.800 77.467 C 326.570 77.697,312.736 77.759,312.379 77.531 C 312.219 77.430,312.164 72.472,312.129 54.896 L 312.083 32.390 311.583 31.587 C 310.269 29.475,307.317 29.233,305.468 31.086 C 304.260 32.297,304.333 30.727,304.333 55.448 L 304.333 77.670 297.125 77.627 L 289.917 77.583 289.869 55.083 C 289.819 30.989,289.825 30.794,290.664 28.787 C 293.129 22.896,301.841 19.427,310.417 20.921 M208.385 20.838 C 210.408 21.127,211.727 21.358,212.250 21.514 C 214.293 22.126,215.038 22.430,216.083 23.082 C 216.450 23.311,216.846 23.545,216.964 23.602 C 217.081 23.660,217.569 23.447,218.047 23.130 C 220.526 21.487,223.813 20.996,232.250 21.009 C 241.332 21.022,243.722 21.401,246.241 23.224 C 246.742 23.587,247.133 23.765,247.241 23.678 C 250.893 20.714,267.439 19.911,274.583 22.351 C 279.657 24.084,283.217 27.087,284.423 30.652 L 284.833 31.865 284.833 54.683 L 284.833 77.500 277.500 77.500 L 270.167 77.500 270.163 55.375 C 270.159 30.335,270.286 32.553,268.784 31.231 C 267.804 30.369,267.096 30.167,265.050 30.167 C 263.059 30.167,263.022 30.192,263.787 31.018 C 264.527 31.818,264.821 32.303,265.343 33.583 L 265.750 34.583 265.750 51.167 C 265.750 69.427,265.809 68.346,264.686 70.583 C 264.038 71.873,261.909 74.149,260.741 74.800 C 249.992 80.793,233.752 78.524,229.881 70.490 C 228.718 68.075,228.781 69.070,228.710 51.940 C 228.635 33.658,228.615 33.866,230.723 31.124 C 231.059 30.687,231.333 30.287,231.333 30.234 C 231.333 30.181,230.490 30.164,229.458 30.195 C 227.330 30.259,226.680 30.487,225.634 31.532 C 224.414 32.753,224.500 30.942,224.500 55.348 C 224.500 76.902,224.494 77.325,224.178 77.494 C 223.795 77.699,210.363 77.733,210.043 77.530 C 209.881 77.427,209.828 72.558,209.793 54.812 L 209.750 32.224 209.286 31.616 C 207.759 29.614,204.895 29.370,203.218 31.098 C 202.014 32.340,202.092 30.747,202.041 55.208 L 201.995 77.333 194.662 77.333 L 187.329 77.333 187.373 54.208 C 187.423 27.814,187.261 30.484,188.962 27.982 C 192.317 23.048,201.140 19.803,208.385 20.838 M163.399 21.597 C 163.666 22.292,163.505 77.462,163.236 77.566 C 162.892 77.698,93.442 77.698,93.097 77.566 C 92.866 77.477,92.833 76.923,92.833 73.069 L 92.833 68.673 93.208 68.586 C 93.415 68.539,99.171 68.475,106.000 68.445 C 119.392 68.385,118.814 68.423,120.853 67.474 C 122.007 66.937,123.041 66.022,123.634 65.014 L 124.083 64.250 124.083 54.161 L 124.083 44.073 123.493 43.251 C 121.474 40.440,117.083 41.291,116.183 44.667 C 115.996 45.365,116.000 60.782,116.186 62.000 L 116.250 62.417 108.833 62.417 L 101.417 62.417 101.417 52.833 C 101.417 43.398,101.422 43.232,101.786 42.083 C 103.664 36.159,110.860 32.333,120.153 32.321 C 129.888 32.307,137.403 36.605,138.825 43.000 C 139.065 44.078,139.054 62.548,138.813 63.417 C 138.413 64.861,137.565 66.344,136.437 67.574 C 136.105 67.936,135.833 68.293,135.833 68.368 C 135.833 68.443,138.702 68.484,142.208 68.460 L 148.583 68.417 148.624 45.083 C 148.647 32.250,148.701 21.656,148.744 21.542 C 148.877 21.189,163.263 21.244,163.399 21.597 M245.981 32.676 C 245.129 33.108,244.070 34.376,243.672 35.440 C 243.275 36.502,243.131 65.047,243.515 66.573 C 244.343 69.861,249.734 70.066,250.810 66.850 C 251.215 65.642,251.064 35.967,250.649 35.083 C 249.811 33.300,247.301 32.005,245.981 32.676 M377.333 32.835 C 385.650 34.109,391.177 37.929,392.413 43.260 C 392.627 44.182,392.667 46.109,392.667 55.491 L 392.667 66.629 392.279 67.966 C 391.246 71.534,388.637 74.083,383.833 76.218 C 378.895 78.413,371.058 78.770,365.333 77.061 C 364.554 76.828,363.767 76.594,363.583 76.541 C 363.290 76.456,361.349 75.477,360.164 74.817 C 357.934 73.575,355.723 71.103,354.738 68.753 L 354.250 67.588 354.250 55.419 L 354.250 43.250 354.635 42.259 C 355.799 39.261,358.342 36.761,361.917 35.100 C 362.650 34.760,363.380 34.410,363.539 34.324 C 363.699 34.237,363.975 34.167,364.155 34.167 C 364.334 34.167,364.521 34.100,364.571 34.019 C 364.622 33.938,364.870 33.832,365.123 33.783 C 365.376 33.734,365.883 33.609,366.250 33.505 C 368.941 32.739,374.512 32.403,377.333 32.835 M372.235 42.013 C 370.983 42.312,369.796 43.159,369.333 44.083 L 368.917 44.917 368.865 55.000 C 368.806 66.301,368.813 66.384,369.836 67.547 C 371.974 69.975,376.566 69.443,377.741 66.630 C 378.142 65.671,378.130 45.075,377.729 44.229 C 376.929 42.543,374.360 41.507,372.235 42.013 M367.783 80.048 C 370.546 80.874,370.750 81.479,370.750 88.833 L 370.750 94.750 369.208 94.798 L 367.667 94.846 367.667 89.042 C 367.667 83.354,367.659 83.222,367.292 82.494 C 366.688 81.297,365.104 81.147,363.933 82.175 C 363.192 82.825,363.000 82.797,363.000 82.037 C 363.000 80.387,365.476 79.357,367.783 80.048 M330.083 83.676 C 331.727 84.105,332.874 85.010,333.767 86.583 C 334.365 87.638,334.472 90.848,333.951 92.136 C 333.553 93.121,333.623 93.167,335.515 93.167 C 337.537 93.167,337.346 93.709,337.202 88.373 C 337.060 83.129,336.903 83.667,338.579 83.667 L 339.963 83.667 340.056 84.208 C 340.108 84.506,340.202 87.019,340.265 89.792 L 340.380 94.833 335.023 94.833 C 332.077 94.833,329.667 94.784,329.667 94.724 C 329.667 94.664,329.840 94.383,330.053 94.099 C 332.399 90.963,331.456 85.822,328.487 85.568 C 324.977 85.267,323.625 91.050,326.491 94.106 C 327.096 94.751,327.023 94.833,325.837 94.833 C 324.661 94.833,324.299 94.420,323.571 92.250 C 321.870 87.180,325.450 82.467,330.083 83.676 M346.917 83.676 C 353.180 85.310,352.121 94.814,345.667 94.896 C 343.048 94.930,341.500 94.068,341.500 92.575 C 341.500 91.525,341.544 91.495,342.101 92.157 C 344.023 94.441,347.374 93.245,347.817 90.116 C 348.405 85.960,344.384 83.424,342.003 86.450 C 341.566 87.006,341.500 86.937,341.500 85.925 C 341.500 84.180,344.336 83.002,346.917 83.676 M361.606 83.920 C 367.159 85.768,366.329 94.901,360.609 94.875 C 357.372 94.860,355.544 91.842,357.005 88.924 C 357.824 87.287,360.566 86.350,361.725 87.312 C 362.205 87.711,362.061 87.107,361.555 86.600 C 359.712 84.757,355.810 85.258,354.675 87.484 C 353.784 89.229,354.434 92.395,356.005 93.966 C 356.862 94.823,356.857 94.833,355.592 94.833 C 354.140 94.833,353.500 94.031,352.830 91.371 C 351.460 85.937,356.023 82.062,361.606 83.920 M384.549 83.835 C 386.098 84.414,386.935 85.342,387.670 87.292 C 387.818 87.684,387.978 87.833,388.253 87.833 C 391.417 87.833,393.649 90.886,392.180 93.203 C 390.928 95.177,387.049 95.734,387.207 93.917 C 387.247 93.447,387.300 93.412,388.078 93.333 C 389.847 93.155,390.301 90.615,388.745 89.595 C 388.187 89.230,387.833 89.364,387.833 89.941 C 387.833 93.590,383.420 96.110,379.980 94.426 L 379.045 93.968 378.314 94.430 C 377.364 95.031,375.473 95.083,374.412 94.537 C 370.856 92.709,372.527 87.851,376.717 87.835 C 377.100 87.834,377.229 87.721,377.436 87.208 C 377.970 85.883,378.169 85.562,378.865 84.908 C 380.346 83.516,382.572 83.095,384.549 83.835 M380.498 85.708 C 379.836 86.159,379.387 86.754,379.239 87.375 L 379.131 87.833 381.871 87.833 C 384.922 87.833,384.925 87.833,384.557 87.104 C 383.714 85.434,381.845 84.792,380.498 85.708 M359.110 89.009 C 358.189 89.733,358.123 91.816,358.993 92.685 C 360.264 93.956,362.168 92.873,362.166 90.882 C 362.164 89.144,360.351 88.033,359.110 89.009 M376.235 89.571 C 375.700 89.946,375.274 91.048,375.401 91.728 C 375.626 92.923,376.704 93.511,377.497 92.869 L 377.898 92.544 377.608 91.647 C 377.448 91.154,377.273 90.431,377.219 90.042 C 377.113 89.270,376.846 89.143,376.235 89.571 M379.033 89.602 C 378.670 90.251,379.356 91.913,380.279 92.616 C 382.055 93.971,384.711 92.552,384.867 90.165 L 384.917 89.417 382.052 89.371 C 379.529 89.331,379.169 89.358,379.033 89.602"/></g></svg>